<?xml version="1.0" encoding="utf-8"?>
<!-- Generator: Adobe Illustrator 24.3.0, SVG Export Plug-In . SVG Version: 6.00 Build 0)  -->
<svg version="1.1" id="Layer_1" xmlns="http://www.w3.org/2000/svg" xmlns:xlink="http://www.w3.org/1999/xlink" x="0px" y="0px"
	 viewBox="0 0 1417.3 421.8" style="enable-background:new 0 0 1417.3 421.8;" xml:space="preserve">
<style type="text/css">
	.st0{fill:#EA5B27;}
</style>
<g>
	<g>
		<g>
			<g>
				<path class="st0" d="M392.4,243.6c17.3-8.7,36.8-16.4,54.3-27.7c21-13.5,28.7-36.8,20.8-57.9c-3.7-9.8-10.9-17.9-15.6-25.3
					c14.4,4.9,26.9,24.6,25.9,44.1c-1,21.1-12.7,35.1-26.5,47.8c16.7-3,31.1-10.4,41.8-24.5c18.1-23.6,13.8-57.1-9.2-75.1
					c-21.9-17.1-46.7-20.4-72.3-15.9c-3.8,0.7-8.2,7.8-9.7,12.9c-11.4,38.6-22.2,77.5-33.2,116.3c-13.5,47.7-41.3,72.3-86.2,73
					c-60.9,1-121.7,0.4-182.6,0.1h-0.1c-7-0.1-11.1-8.4-7.5-14.4c0.4-0.7,0.9-1.4,1.4-2.1c47.6-61.1,106.2-106.2,168.1-146.6
					c35.7-23.3,72.8-43.3,113-54.9c28.7-8.3,57.4-10.7,86,0c17.4,6.5,32.7,17.2,43.2,34.5c20.2,33.4,10,76.7-22.3,97.2
					c-19.7,12.5-41.7,16.1-63.9,18.3C408.8,244.3,399.7,243.6,392.4,243.6z M384.5,117.7c-3.8,0.8-5.1,1-6.3,1.4
					c-63.6,22.5-121.1,58.6-176.2,100c-8.1,6.1-2.7,12.9-2,19.6c0.8,7.3,5.3,8.1,10.7,8.1c42.9-0.1,85.8-0.2,128.6,0.1
					c6.7,0,10-2.9,11.9-10c5.9-22.1,12.3-44.1,18.5-66.1C374.5,153.7,379.2,136.7,384.5,117.7z M335.2,268.6
					c-0.4-0.9-0.9-1.8-1.3-2.7c-3.4-0.2-6.9-0.5-10.3-0.5c-41.5,0-83.1-0.3-124.6,0.2c-8.6,0.1-12.6-3.2-13.9-12.4
					c-0.8-5.5-2.7-10.9-4.7-18.5c-20.7,18.9-40,36.4-59.3,54c2.9,2.7,4.4,3,5.9,3c54.3-0.1,108.6,0.4,162.9-0.8
					c10.9-0.2,22-6,32.5-10.6C327.3,278.1,331,272.6,335.2,268.6z"/>
			</g>
		</g>
		<g>
			<path class="st0" d="M163.5,201.1c11-5.9,4.9-21.9,1.1-38.1c-5.7-24.1-10.7-48.4-16-72.6C138,42.6,100.3,25.7,64,53.5
				c-24.5,18.7-35.3,45.9-31.5,79c2.1,18.7,11.9,32.3,27,40.7c3.1,1.7,6.3,3.2,9,5.6c-19.4-3.2-33.6-14.6-41.4-35
				C5.8,88,48.3,18.6,102.2,20.6c27.1,1,52.5,23.6,61.1,56.3c2.9,11.2,7.2,15,17.7,14.8c35.4-0.8,70.7-0.1,106.1-0.5
				c4.9-0.1,10.3-1.8,14.7-4.4C334.4,67.1,367.1,48,403.7,39c3.2-0.8,6.6-2.3,9.6-1.7c2.4,0.5,5.8,3.3,6.3,5.7
				c3.2,15.2,0.1,20.6-14.3,22.8c-59.6,9-110.8,41-161,75.2C214.4,161.2,186,184.2,163.5,201.1z M185.6,174.8
				c25.3-21.4,48.8-41.1,73.5-62c-29.9,0-57.9,0-87.3,0C176.4,133.5,180.8,153.2,185.6,174.8z"/>
		</g>
		<g>
			<g>
				<path class="st0" d="M137.2,409.5c-24-0.4-40.7-19.3-40.6-45.8c0.2-24.6,19-44.6,41.5-44.4c22.8,0.3,40.1,21,39.5,47.4
					C177.2,390.5,158.9,409.8,137.2,409.5z M114.3,364.6c0.2,14.3,11,26.2,23.4,25.7c12.1-0.5,22.6-12.4,22.6-25.6
					c0-14.5-10.5-25.8-23.3-25.4C124.4,339.8,114.2,351.2,114.3,364.6z"/>
			</g>
		</g>
		<g>
			<g>
				<path class="st0" d="M362.5,365.5c-0.1,24.9-18.9,44.4-42.5,44.1c-22.1-0.3-38.8-20.1-38.5-45.8c0.3-25,18.6-44.8,41.3-44.6
					C345,319.4,362.6,339.9,362.5,365.5z M344.9,364.4c0.1-14.2-10.4-26-22.9-25.9c-12.2,0.1-22.7,11.4-22.9,24.7
					c-0.2,14.9,10.1,27.2,22.8,27.3C334.1,390.4,344.8,378.3,344.9,364.4z"/>
			</g>
		</g>
	</g>
</g>
<g>
	<path d="M581,239h-51.1V38.7h52.8L602,109l20-70.3h52.8V239h-51.1v-87.5l-11.2,38.2h-21L581,151.5V239z"/>
	<path d="M699.1,38.7h51.1v143.5c0,5.4,0.4,9.5,1.2,12.2s2.8,4.1,5.9,4.1c3.2,0,5.1-1.3,5.9-4.1c0.8-2.7,1.2-6.7,1.2-12.2V38.7h51.1
		v143.5c0,8.4-1.3,16.3-3.9,23.5c-2.6,7.2-6.3,13.4-11.2,18.6s-10.9,9.3-18.1,12.3c-7.2,3-15.6,4.5-25,4.5c-9.5,0-17.8-1.5-25-4.5
		s-13.3-7.1-18.1-12.3c-4.9-5.2-8.6-11.4-11.2-18.6c-2.6-7.2-3.9-15.1-3.9-23.5V38.7z"/>
	<path d="M903.4,167.1h-12.5V239h-51.1V38.7h51.1v85.2h12.5V38.7h51.1V239h-51.1V167.1z"/>
	<path d="M1071.9,81.5h-26V239h-51.1V81.5h-26V38.7H1072L1071.9,81.5L1071.9,81.5z"/>
	<path d="M1172.7,38.7l39.2,200.3h-51.8l-3.4-24h-26l-3,24h-51.8l39.2-200.3L1172.7,38.7L1172.7,38.7z M1136.8,172.6h14.2l-7.1-52.2
		L1136.8,172.6z"/>
	<path d="M1299.9,239l-18.3-57.7h-4.4V239h-51.1V38.7h57.5c8.1,0,15.8,1.4,23,4.1s13.6,6.6,19.1,11.7s9.9,11.2,13,18.5
		c3.2,7.2,4.7,15.5,4.7,24.8v24.3c0,10.2-1.9,19.1-5.6,26.7c-3.7,7.7-8.6,14.1-14.7,19.3l24,71h-47.2V239z M1277.2,138.2h4.4
		c2.9,0,5.4-1.5,7.4-4.4s3-7.2,3-12.8V98.6c0-5.6-1-9.9-3-12.8s-4.5-4.4-7.4-4.4h-4.4V138.2z"/>
</g>
<g>
	<rect x="519.7" y="247.4" class="st0" width="845.3" height="142.9"/>
</g>
<g>
	<path d="M810.4,354.6h-19.8V277H811l7.5,27.2l7.7-27.2h20.4v77.6h-19.8v-33.9l-4.3,14.8h-8.1l-4.1-14.8L810.4,354.6L810.4,354.6z"
		/>
	<path d="M889.6,277l15.2,77.6h-20l-1.3-9.3h-10.1l-1.2,9.3h-20l15.2-77.6H889.6z M875.8,328.8h5.5l-2.8-20.2L875.8,328.8z"/>
	<path d="M938.9,354.6l-7.1-22.3h-1.7v22.3h-19.8V277h22.3c3.1,0,6.1,0.5,8.9,1.6c2.8,1,5.3,2.6,7.4,4.5c2.1,2,3.8,4.4,5,7.2
		s1.8,6,1.8,9.6v9.4c0,3.9-0.7,7.4-2.2,10.4c-1.4,3-3.3,5.5-5.7,7.5l9.3,27.5h-18.2V354.6z M930.1,315.5h1.7c1.1,0,2.1-0.6,2.9-1.7
		c0.8-1.1,1.2-2.8,1.2-5v-8.7c0-2.2-0.4-3.8-1.2-5c-0.8-1.1-1.7-1.7-2.9-1.7h-1.7V315.5z"/>
	<path d="M991.8,354.6l-6.7-15.3l-1.3,2.5v12.8H964V277h19.8v15.4l7.6-15.4h20l-16.5,34l17.2,43.5L991.8,354.6L991.8,354.6z"/>
	<path d="M1048.2,326.2h-10.7V338h16.5v16.6h-36.3V277h36.3v16.6h-16.5v16h10.7V326.2z"/>
	<path d="M1098.1,293.6H1088v61h-19.8v-61h-10.1V277h40V293.6z"/>
</g>
</svg>
